<svg version="1.1" xmlns="http://www.w3.org/2000/svg" viewBox="0 0 2821.666666666668 1668.857142857139" width="2821.666666666668" height="1668.857142857139">
  <!-- svg-source:excalidraw -->
  
  <defs>
    <style>
      @font-face {
        font-family: "Virgil";
        src: url("https://excalidraw.com/Virgil.woff2");
      }
      @font-face {
        font-family: "Cascadia";
        src: url("https://excalidraw.com/Cascadia.woff2");
      }
    </style>
  </defs>
  <rect x="0" y="0" width="2821.666666666668" height="1668.857142857139" fill="#ffffff"></rect><g stroke-linecap="round" transform="translate(938.3333333333338 90.52380952380554) rotate(0 240.5 227)"><path d="M270.67 1.83 C289.82 0.36, 311.38 8.77, 329.92 15.73 C348.46 22.69, 365.79 32.42, 381.9 43.59 C398.01 54.76, 413.81 68.15, 426.57 82.77 C439.33 97.38, 450.16 114.08, 458.45 131.28 C466.74 148.48, 472.75 167.57, 476.28 185.99 C479.82 204.41, 480.95 223.15, 479.63 241.81 C478.32 260.47, 474.46 280.06, 468.42 297.96 C462.37 315.86, 454.19 333.51, 443.38 349.21 C432.57 364.91, 418.35 379.28, 403.55 392.15 C388.75 405.02, 371.82 417.3, 354.57 426.42 C337.31 435.54, 319.16 442.15, 300.02 446.9 C280.88 451.64, 259.91 454.99, 239.73 454.87 C219.55 454.74, 198.14 450.94, 178.97 446.15 C159.8 441.37, 142.06 435.2, 124.71 426.15 C107.36 417.1, 89.57 404.75, 74.87 391.85 C60.18 378.95, 47.15 364.6, 36.55 348.76 C25.96 332.93, 17.48 314.75, 11.29 296.84 C5.11 278.93, 0.4 260.03, -0.57 241.31 C-1.55 222.59, 1.27 203.29, 5.42 184.53 C9.56 165.78, 16.01 145.86, 24.3 128.79 C32.6 111.71, 42.61 96.38, 55.18 82.08 C67.75 67.78, 83.29 53.93, 99.74 42.99 C116.18 32.05, 135.1 23.5, 153.85 16.46 C172.6 9.42, 191.02 3.06, 212.24 0.73 C233.46 -1.6, 268.43 1.2, 281.18 2.5 C293.92 3.79, 289.37 4.7, 288.7 8.47 M271.29 2.87 C291.02 1.55, 311.31 10.08, 329.85 16.81 C348.39 23.54, 366.58 32.47, 382.51 43.25 C398.43 54.03, 412.71 67.24, 425.4 81.47 C438.09 95.7, 450.2 111.35, 458.64 128.64 C467.08 145.92, 472.43 166.51, 476.03 185.18 C479.63 203.85, 481.34 221.99, 480.25 240.66 C479.16 259.33, 475.61 279.07, 469.48 297.19 C463.34 315.31, 454.2 333.46, 443.44 349.39 C432.68 365.32, 419.37 380.22, 404.91 392.76 C390.46 405.3, 374.19 415.68, 356.7 424.64 C339.22 433.61, 319.41 441.82, 299.99 446.56 C280.58 451.3, 259.83 453.15, 240.24 453.06 C220.65 452.97, 201.65 450.47, 182.45 446.02 C163.26 441.56, 142.78 435.14, 125.07 426.33 C107.36 417.52, 90.62 405.79, 76.19 393.14 C61.76 380.49, 49.44 366.44, 38.49 350.43 C27.53 334.42, 16.64 315.08, 10.47 297.08 C4.3 279.08, 2.7 261.23, 1.45 242.43 C0.2 223.62, -0.43 202.95, 2.95 184.25 C6.34 165.56, 13.17 147.3, 21.73 130.26 C30.3 113.23, 41.42 96.33, 54.32 82.07 C67.22 67.81, 82.83 55.61, 99.15 44.68 C115.47 33.75, 133.7 23.63, 152.25 16.51 C170.79 9.38, 190.79 4.45, 210.42 1.93 C230.05 -0.6, 260.39 0.78, 270.03 1.36 C279.67 1.95, 268.98 1.84, 268.26 5.42" stroke="#d9480f" stroke-width="1" fill="none"></path></g><g transform="translate(1124.333333333334 294.52380952380554) rotate(0 54.5 23)"><text x="54.5" y="32" font-family="Virgil, Segoe UI Emoji" font-size="36px" fill="#d9480f" text-anchor="middle" style="white-space: pre;" direction="ltr">Auth0</text></g><g stroke-linecap="round" transform="translate(1093.3333333333335 353.85714285713857) rotate(0 83.33333333333337 73.33333333333348)"><path d="M-1.71 -1.52 C52.45 -1.15, 106.02 -0.99, 165.07 -1.03 M-0.87 -0.16 C62.87 0.79, 127.04 0.15, 167.23 -0.13 M167.69 -1.23 C166.13 40.76, 166.37 80.14, 168.1 145.22 M166.74 0.78 C166.89 55.42, 167.13 111.59, 166.46 147.56 M166.07 145.13 C109.42 147.64, 53.88 144.43, -1.66 144.69 M166.37 145.68 C103.98 147.69, 39.39 148.7, 0.09 146.59 M-1.36 147.61 C0.04 93.43, 0.47 40.51, 0.43 -0.36 M0.33 147.26 C1.63 92.5, 1.24 38.59, -0.22 -0.26" stroke="#d9480f" stroke-width="1" fill="none"></path></g><g transform="translate(1128.166666666667 404.19047619047205) rotate(0 48.5 23)"><text x="48.5" y="32" font-family="Virgil, Segoe UI Emoji" font-size="36px" fill="#d9480f" text-anchor="middle" style="white-space: pre;" direction="ltr">users</text></g><g stroke-linecap="round" transform="translate(10 930.5238095238051) rotate(0 341.6666666666667 360)"><path d="M456.81 20.71 C480.02 22.96, 500.3 39.25, 520.41 52.42 C540.52 65.58, 560.2 82.42, 577.45 99.69 C594.7 116.97, 610.43 135.45, 623.91 156.04 C637.38 176.62, 649.24 200.15, 658.31 223.21 C667.37 246.28, 673.99 269.89, 678.3 294.43 C682.61 318.96, 684.99 345.38, 684.18 370.45 C683.36 395.51, 679.08 420.55, 673.4 444.8 C667.71 469.05, 660.07 493.34, 650.06 515.94 C640.05 538.55, 627.86 560.9, 613.34 580.42 C598.82 599.94, 581.25 617.11, 562.94 633.04 C544.62 648.98, 524.31 664.02, 503.45 676.04 C482.59 688.07, 460.44 698.05, 437.77 705.21 C415.1 712.37, 391.07 717.09, 367.43 718.99 C343.79 720.88, 319.31 719.91, 295.92 716.58 C272.53 713.25, 249.34 707.25, 227.09 699.01 C204.83 690.76, 182.69 680.18, 162.39 667.11 C142.09 654.04, 122.26 637.78, 105.3 620.58 C88.34 603.38, 73.69 584.45, 60.6 563.9 C47.52 543.36, 35.99 520.51, 26.79 497.31 C17.59 474.11, 9.96 449.16, 5.41 424.71 C0.86 400.25, -1.1 375.38, -0.5 350.58 C0.1 325.77, 3.38 300.14, 9 275.86 C14.61 251.57, 22.99 227.31, 33.2 204.86 C43.41 182.4, 55.85 160.87, 70.27 141.11 C84.69 121.36, 101.43 102.47, 119.71 86.32 C138 70.16, 159.1 56.01, 179.96 44.2 C200.83 32.39, 222.32 22.54, 244.91 15.46 C267.5 8.39, 291.93 3.9, 315.5 1.75 C339.06 -0.39, 362.22 -1, 386.31 2.59 C410.4 6.18, 447.33 18.62, 460.04 23.3 C472.75 27.98, 464.39 25.1, 462.58 30.69 M242.64 15.7 C262.57 3.03, 287.85 2.79, 311.45 0.41 C335.05 -1.97, 360.71 -1.67, 384.27 1.43 C407.82 4.53, 430.32 10.58, 452.8 19.01 C475.27 27.45, 499.03 39, 519.11 52.02 C539.19 65.04, 556.36 80.37, 573.27 97.14 C590.19 113.91, 606.76 132.04, 620.58 152.63 C634.39 173.22, 646.72 197.75, 656.14 220.65 C665.55 243.56, 672.41 265.88, 677.07 290.05 C681.73 314.23, 684.34 340.33, 684.1 365.71 C683.85 391.09, 680.91 417.81, 675.6 442.34 C670.29 466.87, 662.52 490.72, 652.23 512.89 C641.95 535.06, 628.56 555.48, 613.91 575.36 C599.26 595.23, 581.99 615.39, 564.32 632.13 C546.66 648.87, 528.25 663.91, 507.93 675.81 C487.6 687.72, 465.29 696.55, 442.38 703.55 C419.47 710.55, 394.44 715.62, 370.47 717.79 C346.51 719.95, 321.9 719.49, 298.58 716.55 C275.26 713.61, 252.62 708.35, 230.54 700.17 C208.46 691.99, 186.21 680.42, 166.08 667.47 C145.95 654.52, 126.87 639.13, 109.74 622.46 C92.6 605.79, 76.79 587.75, 63.26 567.47 C49.74 547.18, 38.09 524.06, 28.58 500.75 C19.07 477.44, 10.77 451.9, 6.23 427.6 C1.69 403.29, 0.68 379.79, 1.34 354.9 C2 330, 5.04 302.47, 10.17 278.22 C15.3 253.96, 22.43 231.99, 32.11 209.35 C41.8 186.72, 53.86 162.74, 68.26 142.4 C82.66 122.05, 100.36 103.54, 118.51 87.29 C136.66 71.05, 156.57 56.69, 177.17 44.93 C197.77 33.17, 231.26 20.55, 242.11 16.73 C252.96 12.92, 240.47 16.66, 242.28 22.03" stroke="#0b7285" stroke-width="1" fill="none"></path></g><g transform="translate(297.16666666666686 1267.523809523805) rotate(0 54.5 23)"><text x="54.5" y="32" font-family="Virgil, Segoe UI Emoji" font-size="36px" fill="#0b7285" text-anchor="middle" style="white-space: pre;" direction="ltr">React</text></g><g stroke-linecap="round" transform="translate(2128.3333333333344 938.857142857139) rotate(0 341.66666666666674 360)"><path d="M285.5 4.59 C306.6 -5.16, 332.44 -1.21, 356.12 0.04 C379.79 1.29, 404.62 5.94, 427.56 12.1 C450.5 18.26, 472.86 26.02, 493.76 36.99 C514.67 47.97, 534.62 62.5, 553 77.96 C571.38 93.42, 588.66 110.37, 604.05 129.75 C619.45 149.12, 634.18 172.02, 645.36 194.19 C656.55 216.36, 664.96 238.77, 671.15 262.76 C677.35 286.76, 681.13 313.14, 682.54 338.16 C683.94 363.19, 682.95 388.45, 679.6 412.92 C676.25 437.4, 670.84 461.76, 662.44 485.02 C654.05 508.28, 642.11 531.48, 629.24 552.48 C616.36 573.48, 601.64 592.99, 585.18 611 C568.73 629.01, 550.14 646.55, 530.51 660.53 C510.89 674.5, 489.51 685.91, 467.42 694.86 C445.33 703.8, 421.37 709.89, 397.98 714.19 C374.59 718.49, 350.7 721.55, 327.09 720.66 C303.48 719.77, 279.36 715.08, 256.32 708.84 C233.28 702.6, 210.02 694.25, 188.87 683.23 C167.71 672.21, 147.71 658.26, 129.4 642.71 C111.09 627.16, 94.06 609.43, 78.99 589.94 C63.93 570.44, 50.17 547.98, 39.03 525.74 C27.89 503.51, 18.62 480.39, 12.14 456.52 C5.66 432.66, 1.67 407.42, 0.16 382.56 C-1.35 357.7, -0.41 332.13, 3.09 307.37 C6.59 282.62, 12.7 257.52, 21.15 234.04 C29.6 210.57, 41.02 187.53, 53.77 166.52 C66.53 145.52, 81.31 125.72, 97.68 108 C114.05 90.28, 132.22 73.91, 151.99 60.2 C171.76 46.5, 191.2 35.33, 216.32 25.77 C241.44 16.21, 284.99 6, 302.7 2.85 C320.42 -0.31, 321.95 1.06, 322.62 6.83 M341.79 0.51 C364.23 -5.37, 390.45 2.86, 413.41 8.08 C436.37 13.3, 457.77 21.6, 479.54 31.82 C501.31 42.04, 524.48 54.99, 544.05 69.42 C563.62 83.84, 581.58 99.84, 596.96 118.35 C612.35 136.87, 624.58 158.52, 636.34 180.52 C648.1 202.52, 659.76 226.69, 667.53 250.37 C675.3 274.04, 680.49 297.93, 682.97 322.56 C685.46 347.19, 684.98 373.36, 682.46 398.15 C679.94 422.93, 675.55 447.41, 667.86 471.28 C660.17 495.16, 648.31 519.96, 636.33 541.38 C624.35 562.8, 611.87 581.53, 595.98 599.82 C580.1 618.11, 560.46 636.49, 541.03 651.11 C521.61 665.74, 500.61 677.19, 479.43 687.59 C458.25 697.99, 436.73 708.15, 413.95 713.5 C391.18 718.85, 366.68 720.17, 342.79 719.69 C318.9 719.22, 293.89 715.91, 270.62 710.64 C247.35 705.37, 224.89 698.01, 203.18 688.05 C181.46 678.09, 159.42 665.58, 140.33 650.88 C121.24 636.17, 104.44 618.25, 88.62 599.82 C72.8 581.39, 57.28 561.62, 45.4 540.31 C33.53 519, 24.66 495.76, 17.39 471.96 C10.12 448.15, 4.37 422.62, 1.81 397.48 C-0.75 372.34, -0.62 345.94, 2.04 321.11 C4.71 296.28, 10.5 272.17, 17.8 248.52 C25.1 224.87, 34.11 200.89, 45.83 179.21 C57.55 157.52, 72.31 136.69, 88.13 118.41 C103.95 100.14, 121.76 84.1, 140.74 69.54 C159.71 54.97, 180.39 41.48, 201.99 31.05 C223.58 20.62, 247.21 12.01, 270.32 6.97 C293.42 1.93, 328.5 0.75, 340.61 0.83 C352.72 0.91, 342.52 1.54, 342.97 7.46" stroke="#862e9c" stroke-width="1" fill="none"></path></g><g transform="translate(2352.500000000001 1275.857142857139) rotate(0 117.5 23)"><text x="117.5" y="32" font-family="Virgil, Segoe UI Emoji" font-size="36px" fill="#862e9c" text-anchor="middle" style="white-space: pre;" direction="ltr">Express/Knex</text></g><g stroke-linecap="round"><g transform="translate(395.0000000000007 912.1904761904739) rotate(0 273.53703965035567 -248.1340039978395)"><path d="M-0.63 -0.82 C90.75 -83.82, 456.4 -414.79, 547.7 -497.63 M1.25 1.36 C92.61 -81.54, 456.4 -413.51, 547.3 -496.6" stroke="#0b7285" stroke-width="1" fill="none"></path></g><g transform="translate(395.0000000000007 912.1904761904739) rotate(0 273.53703965035567 -248.1340039978395)"><path d="M532.03 -468.29 C535.23 -475.86, 538.39 -482.73, 545.77 -495.82 M534.17 -469.97 C538.05 -477.27, 542.25 -486.19, 546.47 -496.87" stroke="#0b7285" stroke-width="1" fill="none"></path></g><g transform="translate(395.0000000000007 912.1904761904739) rotate(0 273.53703965035567 -248.1340039978395)"><path d="M518.19 -483.44 C524.93 -487.11, 531.59 -490.15, 545.77 -495.82 M520.33 -485.13 C528.68 -487.57, 537.22 -491.75, 546.47 -496.87" stroke="#0b7285" stroke-width="1" fill="none"></path></g></g><g stroke-linecap="round"><g transform="translate(1075.0000000000007 542.1904761904739) rotate(0 -277.2443088568251 206.66061157513423)"><path d="M-0.53 0.56 C-93.17 69.52, -462.62 344.72, -555.42 413.51 M1.4 -0.19 C-91.36 68.43, -463.17 342.5, -555.89 411.66" stroke="#d9480f" stroke-width="1" fill="none"></path></g><g transform="translate(1075.0000000000007 542.1904761904739) rotate(0 -277.2443088568251 206.66061157513423)"><path d="M-538.41 388.15 C-544.1 393.36, -550 404.76, -555.18 409.89 M-539.08 385.73 C-545.49 397.03, -552.87 405.99, -554.94 410.85" stroke="#d9480f" stroke-width="1" fill="none"></path></g><g transform="translate(1075.0000000000007 542.1904761904739) rotate(0 -277.2443088568251 206.66061157513423)"><path d="M-526.2 404.64 C-535.95 404.26, -545.96 410.12, -555.18 409.89 M-526.86 402.22 C-538.26 406.89, -550.47 409.32, -554.94 410.85" stroke="#d9480f" stroke-width="1" fill="none"></path></g></g><g stroke-linecap="round"><g transform="translate(682.1317539895191 1150.8715224608613) rotate(0 737.2817884791914 -14.77302371286396)"><path d="M0.85 0.55 C246.54 -4.31, 1228.94 -25.08, 1474.73 -30.09 M-0.16 -0.21 C245.29 -4.87, 1227.74 -24.41, 1473.61 -29.12" stroke="#0b7285" stroke-width="1" fill="none"></path></g><g transform="translate(682.1317539895191 1150.8715224608613) rotate(0 737.2817884791914 -14.77302371286396)"><path d="M1446.54 -18.84 C1453.69 -21.42, 1464.38 -24.93, 1472.13 -30.51 M1445.71 -17.57 C1452.33 -21.34, 1460.62 -23.33, 1473.26 -28.21" stroke="#0b7285" stroke-width="1" fill="none"></path></g><g transform="translate(682.1317539895191 1150.8715224608613) rotate(0 737.2817884791914 -14.77302371286396)"><path d="M1446.14 -39.36 C1453.26 -34.79, 1464.09 -31.14, 1472.13 -30.51 M1445.31 -38.08 C1452.18 -36.61, 1460.56 -33.36, 1473.26 -28.21" stroke="#0b7285" stroke-width="1" fill="none"></path></g></g><g stroke-linecap="round"><g transform="translate(2113.3274364063714 1335.503294055699) rotate(0 -701.4178593948825 -2.2649718466723243)"><path d="M0.57 -0.18 C-233.33 -0.81, -1169.02 -3.95, -1403.05 -4.35 M-0.58 -1.32 C-234.59 -1.79, -1169.49 -2.84, -1403.41 -3.36" stroke="#862e9c" stroke-width="1" fill="none"></path></g><g transform="translate(2113.3274364063714 1335.503294055699) rotate(0 -701.4178593948825 -2.2649718466723243)"><path d="M-1375.51 -11.7 C-1386.41 -9.12, -1392.8 -5.5, -1402.89 -2.16 M-1375.15 -14.36 C-1383.02 -10.4, -1391.85 -7.85, -1404.12 -4.28" stroke="#862e9c" stroke-width="1" fill="none"></path></g><g transform="translate(2113.3274364063714 1335.503294055699) rotate(0 -701.4178593948825 -2.2649718466723243)"><path d="M-1375.54 8.82 C-1386.33 4.56, -1392.71 1.34, -1402.89 -2.16 M-1375.18 6.16 C-1383 4.09, -1391.81 0.62, -1404.12 -4.28" stroke="#862e9c" stroke-width="1" fill="none"></path></g></g><g transform="translate(554.9999999999993 622.8571428571399) rotate(0 43 23)"><text x="0" y="32" font-family="Virgil, Segoe UI Emoji" font-size="36px" fill="#0b7285" text-anchor="start" style="white-space: pre;" direction="ltr">Login</text></g><g transform="translate(790.6666666666658 772.523809523806) rotate(0 206.5 23)"><text x="0" y="32" font-family="Virgil, Segoe UI Emoji" font-size="36px" fill="#d9480f" text-anchor="start" style="white-space: pre;" direction="ltr">isAuthenticated = true</text></g><g transform="translate(1170.4999999999995 1070.85714285714) rotate(0 131 23)"><text x="0" y="32" font-family="Virgil, Segoe UI Emoji" font-size="36px" fill="#0b7285" text-anchor="start" style="white-space: pre;" direction="ltr">getUser(token)</text></g><g transform="translate(708.5000000000002 1267.1904761904711) rotate(0 693 23)"><text x="0" y="32" font-family="Virgil, Segoe UI Emoji" font-size="36px" fill="#862e9c" text-anchor="start" style="white-space: pre;" direction="ltr">is User in DB? Yes? Add to Redux (without token). No? Navigate to Register</text></g><g transform="translate(703.3333333333335 559.5238095238087) rotate(0 11 23)"><text x="0" y="32" font-family="Virgil, Segoe UI Emoji" font-size="36px" fill="#0b7285" text-anchor="start" style="white-space: pre;" direction="ltr">1.</text></g><g transform="translate(865.0000000000002 702.8571428571422) rotate(0 19 23)"><text x="0" y="32" font-family="Virgil, Segoe UI Emoji" font-size="36px" fill="#d9480f" text-anchor="start" style="white-space: pre;" direction="ltr">2.</text></g><g transform="translate(1563.666666666667 1072.8571428571422) rotate(0 30 23)"><text x="0" y="32" font-family="Virgil, Segoe UI Emoji" font-size="36px" fill="#0b7285" text-anchor="start" style="white-space: pre;" direction="ltr">3a.</text></g><g transform="translate(920.8333333333335 1222.0238095238087) rotate(0 29.5 23)"><text x="0" y="32" font-family="Virgil, Segoe UI Emoji" font-size="36px" fill="#862e9c" text-anchor="start" style="white-space: pre;" direction="ltr">4a.</text></g><g stroke-linecap="round"><g transform="translate(563.0000000000005 988.1904761904734) rotate(0 65.9471924210689 43.91901346705731)"><path d="M-0.53 0.38 C21.11 0.4, 113.62 -14.38, 129.2 1.06 C144.77 16.5, 99.23 77.69, 92.93 93.02 M1.39 -0.46 C22.95 -0.32, 113.14 -13.09, 128.35 2.62 C143.56 18.34, 98.82 78.65, 92.65 93.82" stroke="#0b7285" stroke-width="1" fill="none"></path></g><g transform="translate(563.0000000000005 988.1904761904734) rotate(0 65.9471924210689 43.91901346705731)"><path d="M98.29 64.57 C96.75 73.04, 93.79 77.74, 91.05 92.76 M96.88 64.49 C96.8 75.13, 93.75 87.33, 93.19 93.87" stroke="#0b7285" stroke-width="1" fill="none"></path></g><g transform="translate(563.0000000000005 988.1904761904734) rotate(0 65.9471924210689 43.91901346705731)"><path d="M116.13 74.71 C110.12 80.61, 102.76 82.81, 91.05 92.76 M114.72 74.63 C107.63 81.38, 97.62 89.63, 93.19 93.87" stroke="#0b7285" stroke-width="1" fill="none"></path></g></g><g transform="translate(747.0000000000005 984.1904761904734) rotate(0 575.5 23)"><text x="0" y="32" font-family="Virgil, Segoe UI Emoji" font-size="36px" fill="#0b7285" text-anchor="start" style="white-space: pre;" direction="ltr">token in Redux? Yes? Do nothing. No? Add to Redux (with token)</text></g><g stroke-linecap="round" transform="translate(2354.0000000000005 1382.1904761904739) rotate(0 120 106)"><path d="M-0.8 -1.57 C74.34 -1.85, 146.35 -2.59, 238.87 -0.03 M-0.28 -0.59 C55.81 -1.19, 111.49 -1.08, 240.75 0.22 M239.61 0.91 C243.34 84.15, 240.46 166.25, 238.41 211.85 M239.85 0.76 C238.42 52.1, 239.17 103.53, 239.47 212.57 M239.14 212.85 C170.76 212.33, 101.8 214.8, -0.73 212.44 M239.9 211.68 C150.44 210.06, 60.78 210.42, -0.08 211.5 M-0.26 213.66 C1.11 140.1, 1.24 66.47, 1.35 -0.27 M-0.11 211.68 C1.88 161.29, 2 109.56, -0.6 0.65" stroke="#862e9c" stroke-width="1" fill="none"></path></g><g transform="translate(2425.5000000000005 1465.1904761904739) rotate(0 48.5 23)"><text x="48.5" y="32" font-family="Virgil, Segoe UI Emoji" font-size="36px" fill="#862e9c" text-anchor="middle" style="white-space: pre;" direction="ltr">users</text></g><g stroke-linecap="round"><g transform="translate(666.5000000000018 1476.6904761904748) rotate(0 739.9728432051465 -5.069249037317832)"><path d="M0.2 1.14 C246.96 -0.47, 1234.42 -7.6, 1481.1 -9.45 M-1.15 0.7 C245.5 -1.3, 1233.92 -9.74, 1480.73 -11.28" stroke="#0b7285" stroke-width="1" fill="none"></path></g><g transform="translate(666.5000000000018 1476.6904761904748) rotate(0 739.9728432051465 -5.069249037317832)"><path d="M1454.52 1.02 C1463.23 -3.99, 1472.13 -6.68, 1479.6 -12.59 M1452.18 -0.28 C1463.9 -4.94, 1473.21 -7.79, 1481.46 -12.07" stroke="#0b7285" stroke-width="1" fill="none"></path></g><g transform="translate(666.5000000000018 1476.6904761904748) rotate(0 739.9728432051465 -5.069249037317832)"><path d="M1454.37 -19.5 C1463.17 -17.42, 1472.13 -13.02, 1479.6 -12.59 M1452.03 -20.8 C1463.83 -17.85, 1473.2 -13.1, 1481.46 -12.07" stroke="#0b7285" stroke-width="1" fill="none"></path></g></g><g transform="translate(1054.0000000000018 1420.6904761904748) rotate(0 408 23)"><text x="0" y="32" font-family="Virgil, Segoe UI Emoji" font-size="36px" fill="#0b7285" text-anchor="start" style="white-space: pre;" direction="ltr">5. Send an Authenticated Request (w/ token)</text></g><g transform="translate(1223.523809523816 10) rotate(0 239 31)"><text x="0" y="44" font-family="Virgil, Segoe UI Emoji" font-size="49.0434782608692px" fill="#343a40" text-anchor="start" style="white-space: pre;" direction="ltr">JWT Auth currently</text></g><g transform="translate(729.7321428571618 939.8333333333253) rotate(0 27.5 23)"><text x="0" y="32" font-family="Virgil, Segoe UI Emoji" font-size="36px" fill="#0b7285" text-anchor="start" style="white-space: pre;" direction="ltr">3b.</text></g></svg>